<svg id="Groupe_21" data-name="Groupe 21" xmlns="http://www.w3.org/2000/svg" viewBox="0 0 25 23.335">
  <defs>
    <style>
      .cls-1 {
        fill: #eaeaf0;
      }

      .cls-2 {
        fill: #024d7e;
      }

      .cls-3 {
        fill: #5da7d6;
      }

      .cls-4 {
        fill: #0268aa;
      }
    </style>
  </defs>
  <path id="Tracé_76" data-name="Tracé 76" class="cls-1" d="M25,35.213V55.77H0V35.213L12.5,34.1Z" transform="translate(0 -32.435)"/>
  <path id="Tracé_77" data-name="Tracé 77" class="cls-2" d="M425.443,0V2.778h-2.778L421,1.387,422.665,0Z" transform="translate(-400.443)"/>
  <rect id="Rectangle_58" data-name="Rectangle 58" class="cls-3" width="22.222" height="2.778"/>
  <path id="Tracé_78" data-name="Tracé 78" class="cls-4" d="M78.545,225.63H60.215a.415.415,0,0,1,0-.83H78.55a.415.415,0,1,1,0,.83Z" transform="translate(-56.88 -213.823)"/>
  <g id="Groupe_19" data-name="Groupe 19" transform="translate(2.915 13.198)">
    <path id="Tracé_79" data-name="Tracé 79" class="cls-3" d="M68.172,271.13H60.115a.415.415,0,0,1,0-.83h8.057a.415.415,0,0,1,0,.83Z" transform="translate(-59.7 -270.3)"/>
    <path id="Tracé_80" data-name="Tracé 80" class="cls-3" d="M68.172,316.63H60.115a.415.415,0,0,1,0-.83h8.057a.415.415,0,0,1,0,.83Z" transform="translate(-59.7 -313.578)"/>
    <path id="Tracé_81" data-name="Tracé 81" class="cls-3" d="M68.172,362.13H60.115a.415.415,0,1,1,0-.83h8.057a.415.415,0,0,1,.415.415A.409.409,0,0,1,68.172,362.13Z" transform="translate(-59.7 -356.857)"/>
    <path id="Tracé_315" data-name="Tracé 315" class="cls-3" d="M68.172,407.63H60.115a.415.415,0,1,1,0-.83h8.057a.415.415,0,0,1,0,.83Z" transform="translate(-59.7 -400.135)"/>
  </g>
  <rect id="Rectangle_59" data-name="Rectangle 59" class="cls-2" width="8.057" height="6.665" transform="translate(13.613 13.613)"/>
  <g id="Groupe_20" data-name="Groupe 20" transform="translate(2.915 5.411)">
    <path id="Tracé_83" data-name="Tracé 83" class="cls-4" d="M363.8,115.165a1.519,1.519,0,0,1-1.528-.859.416.416,0,0,1,.781-.283c.068.186.366.308.742.308.283,0,.762-.088.762-.415,0-.225-.1-.3-.83-.42a3.172,3.172,0,0,1-.937-.254,1.063,1.063,0,0,1-.591-.991c0-.737.654-1.25,1.592-1.25a1.523,1.523,0,0,1,1.528.854.416.416,0,0,1-.781.283c-.068-.186-.366-.308-.742-.308-.283,0-.762.088-.762.415,0,.225.1.3.825.42a3.171,3.171,0,0,1,.937.254,1.063,1.063,0,0,1,.591.991C365.4,114.647,364.744,115.165,363.8,115.165Z" transform="translate(-347.429 -110.991)"/>
    <path id="Tracé_84" data-name="Tracé 84" class="cls-4" d="M261.975,115a.417.417,0,0,1-.371-.229l-.474-.933-.474.933a.417.417,0,0,1-.776-.088l-.845-3.335a.418.418,0,1,1,.81-.205l.571,2.256.342-.674a.418.418,0,0,1,.371-.23.412.412,0,0,1,.371.23l.342.674.571-2.256a.418.418,0,0,1,.811.205l-.845,3.335a.423.423,0,0,1-.356.312C262,114.991,261.99,115,261.975,115Z" transform="translate(-249.289 -110.822)"/>
    <path id="Tracé_85" data-name="Tracé 85" class="cls-4" d="M179.568,115.165h-2.353a.415.415,0,0,1-.415-.415v-3.335a.415.415,0,0,1,.415-.415h2.353a.415.415,0,1,1,0,.83H177.63v2.5h1.938a.415.415,0,0,1,.415.415A.419.419,0,0,1,179.568,115.165Z" transform="translate(-171.082 -110.991)"/>
    <path id="Tracé_86" data-name="Tracé 86" class="cls-4" d="M178.782,145.93h-1.567a.415.415,0,0,1,0-.83h1.567a.415.415,0,0,1,0,.83Z" transform="translate(-171.082 -143.426)"/>
    <path id="Tracé_87" data-name="Tracé 87" class="cls-4" d="M87.657,115.052a.432.432,0,0,1-.317-.146L85.23,112.43v2.2a.415.415,0,1,1-.83,0V111.3a.415.415,0,0,1,.732-.269l2.109,2.476v-2.2a.415.415,0,1,1,.83,0v3.335a.411.411,0,0,1-.273.391A.453.453,0,0,1,87.657,115.052Z" transform="translate(-83.194 -110.878)"/>
  </g>
</svg>
