<svg id="Groupe_27" data-name="Groupe 27" xmlns="http://www.w3.org/2000/svg" viewBox="0 0 25 18.065">
  <defs>
    <style>
      .cls-1 {
        fill: #e7f2f9;
      }

      .cls-2 {
        fill: #aad7f3;
      }

      .cls-3 {
        fill: #024d7e;
      }

      .cls-4 {
        fill: #5da7d6;
      }
    </style>
  </defs>
  <path id="Tracé_105" data-name="Tracé 105" class="cls-1" d="M23.548,18.065H1.4a1.423,1.423,0,0,1-1.4-1.4V1.4A1.423,1.423,0,0,1,1.4,0H23.6A1.423,1.423,0,0,1,25,1.4V16.667a1.511,1.511,0,0,1-1.452,1.4" transform="translate(0 0)"/>
  <path id="Tracé_106" data-name="Tracé 106" class="cls-2" d="M8.3,22.4H4.43a.43.43,0,0,0,0,.86H8.3a.43.43,0,1,0,0-.86" transform="translate(-1.849 -10.357)"/>
  <path id="Tracé_107" data-name="Tracé 107" class="cls-2" d="M19.131,22.83a.463.463,0,0,0-.43-.43H14.83a.43.43,0,1,0,0,.86H18.7a.463.463,0,0,0,.43-.43" transform="translate(-6.658 -10.357)"/>
  <path id="Tracé_108" data-name="Tracé 108" class="cls-2" d="M4.86,26.4H4.43a.43.43,0,0,0,0,.86h.43a.43.43,0,0,0,0-.86" transform="translate(-1.849 -12.206)"/>
  <path id="Tracé_109" data-name="Tracé 109" class="cls-2" d="M9.29,26.4H8.43a.43.43,0,0,0,0,.86h.86a.43.43,0,0,0,0-.86" transform="translate(-3.699 -12.206)"/>
  <path id="Tracé_110" data-name="Tracé 110" class="cls-2" d="M13.66,26.4h-.43a.43.43,0,0,0,0,.86h.43a.43.43,0,0,0,0-.86" transform="translate(-5.918 -12.206)"/>
  <path id="Tracé_111" data-name="Tracé 111" class="cls-2" d="M18.09,26.4h-.86a.43.43,0,1,0,0,.86h.86a.43.43,0,0,0,0-.86" transform="translate(-7.768 -12.206)"/>
  <path id="Tracé_112" data-name="Tracé 112" class="cls-2" d="M21.708,26.5a.538.538,0,0,0,0,.645.538.538,0,0,0,.645,0,.538.538,0,0,0,0-.645.491.491,0,0,0-.645,0" transform="translate(-9.987 -12.195)"/>
  <path id="Tracé_113" data-name="Tracé 113" class="cls-3" d="M32.361,22.581A2.581,2.581,0,1,1,29.781,20a2.548,2.548,0,0,1,2.581,2.581" transform="translate(-12.576 -9.247)"/>
  <path id="Tracé_114" data-name="Tracé 114" class="cls-4" d="M37.961,22.581A2.581,2.581,0,1,1,35.381,20a2.548,2.548,0,0,1,2.581,2.581" transform="translate(-15.166 -9.247)"/>
  <path id="Tracé_115" data-name="Tracé 115" class="cls-3" d="M11.144,11.561H5.338a.508.508,0,0,1-.538-.538V6.938A.508.508,0,0,1,5.338,6.4h5.806a.539.539,0,0,1,.538.538v4.086a.508.508,0,0,1-.538.538" transform="translate(-2.219 -2.959)"/>
  <path id="Tracé_116" data-name="Tracé 116" class="cls-4" d="M10.774,11.622H4.968A.964.964,0,0,1,4,10.654V6.568A.964.964,0,0,1,4.968,5.6h5.806a.964.964,0,0,1,.968.968v4.086a.964.964,0,0,1-.968.968M4.968,6.46a.116.116,0,0,0-.108.108v4.086a.116.116,0,0,0,.108.108h5.806a.116.116,0,0,0,.108-.108V6.568a.116.116,0,0,0-.108-.108H4.968Zm0,0" transform="translate(-1.849 -2.589)"/>
  <path id="Tracé_117" data-name="Tracé 117" class="cls-3" d="M13.9,6.938a.539.539,0,0,0-.538-.538H10.138a.539.539,0,0,0-.538.538v4.086a.508.508,0,0,0,.538.538h.645a.508.508,0,0,0,.538-.538V8.658a.508.508,0,0,1,.538-.538h1.505a.539.539,0,0,0,.538-.538Zm0,0" transform="translate(-4.439 -2.959)"/>
  <path id="Tracé_118" data-name="Tracé 118" class="cls-4" d="M10.413,11.622H9.768a.964.964,0,0,1-.968-.968V6.568A.964.964,0,0,1,9.768,5.6h3.226a.964.964,0,0,1,.968.968v.645a.964.964,0,0,1-.968.968H11.488a.116.116,0,0,0-.108.108v2.366a.964.964,0,0,1-.968.968M9.768,6.46a.116.116,0,0,0-.108.108v4.086a.116.116,0,0,0,.108.108h.645a.116.116,0,0,0,.108-.108V8.288a.964.964,0,0,1,.968-.968h1.505a.116.116,0,0,0,.108-.108V6.568a.116.116,0,0,0-.108-.108H9.768Zm0,0" transform="translate(-4.069 -2.589)"/>
  <path id="Tracé_119" data-name="Tracé 119" class="cls-4" d="M15.011,12.86H12.43a.43.43,0,0,1,0-.86h2.581a.43.43,0,0,1,0,.86" transform="translate(-5.548 -5.548)"/>
  <path id="Tracé_120" data-name="Tracé 120" class="cls-4" d="M7.011,9.66H4.43a.43.43,0,0,1,0-.86H7.011a.43.43,0,1,1,0,.86" transform="translate(-1.849 -4.069)"/>
  <path id="Tracé_121" data-name="Tracé 121" class="cls-4" d="M7.011,12.86H4.43a.43.43,0,1,1,0-.86H7.011a.43.43,0,1,1,0,.86" transform="translate(-1.849 -5.548)"/>
</svg>
