<svg id="Groupe_30" data-name="Groupe 30" xmlns="http://www.w3.org/2000/svg" viewBox="0 0 22.412 25">
  <defs>
    <style>
      .cls-1 {
        fill: #e7f2f9;
      }

      .cls-2 {
        fill: #aad7f3;
      }

      .cls-3 {
        fill: #5da7d6;
      }

      .cls-4 {
        fill: #a3c9e2;
      }

      .cls-5 {
        fill: #024d7e;
      }

      .cls-6 {
        fill: #d4e4ef;
      }
    </style>
  </defs>
  <path id="Tracé_122" data-name="Tracé 122" class="cls-1" d="M157.857,303.117V300.1H150.1v3.017l3.876,3.451Z" transform="translate(-142.773 -285.444)"/>
  <path id="Tracé_123" data-name="Tracé 123" class="cls-2" d="M21.079,362.264l-5.331-1.255a.891.891,0,0,1-.225-.088l-4.32,2.519L7.054,360.8a.823.823,0,0,1-.391.21l-5.336,1.255A1.728,1.728,0,0,0,0,363.944v3.373a.863.863,0,0,0,.864.864H21.547a.863.863,0,0,0,.864-.864v-3.373A1.738,1.738,0,0,0,21.079,362.264Z" transform="translate(0 -343.181)"/>
  <path id="Tracé_124" data-name="Tracé 124" class="cls-3" d="M150.1,300.1v3.183c4.882,1.762,7.757-2.641,7.757-2.641V300.1l-7.757,0Z" transform="translate(-142.773 -285.444)"/>
  <path id="Tracé_125" data-name="Tracé 125" class="cls-1" d="M114.8,97.1l.376,8.26a2.6,2.6,0,0,0,1.03,1.953l1.782,1.338a2.58,2.58,0,0,0,1.552.517h1.723a2.58,2.58,0,0,0,1.552-.517l1.782-1.338a2.58,2.58,0,0,0,1.03-1.953L126,97.1Z" transform="translate(-109.196 -92.354)"/>
  <path id="Tracé_126" data-name="Tracé 126" class="cls-4" d="M119.106,98.823c1.723,0,4.31-.43,4.921-1.723H114.8l.376,8.26a2.6,2.6,0,0,0,1.03,1.953l1.782,1.338a2.58,2.58,0,0,0,1.552.517h.864c-.864,0-2.587-1.723-2.587-3.876v-5.17A1.372,1.372,0,0,1,119.106,98.823Z" transform="translate(-109.196 -92.354)"/>
  <g id="Groupe_28" data-name="Groupe 28" transform="translate(0 19.694)">
    <path id="Tracé_127" data-name="Tracé 127" class="cls-1" d="M3.163,405.809.371,403.3A1.721,1.721,0,0,0,0,404.369v3.373a.863.863,0,0,0,.864.864H3.881v-1.2A2.179,2.179,0,0,0,3.163,405.809Z" transform="translate(0 -403.3)"/>
    <path id="Tracé_128" data-name="Tracé 128" class="cls-1" d="M380.218,405.809l2.792-2.509a1.722,1.722,0,0,1,.371,1.069v3.373a.863.863,0,0,1-.864.864H379.5v-1.2A2.179,2.179,0,0,1,380.218,405.809Z" transform="translate(-360.974 -403.3)"/>
  </g>
  <path id="Tracé_129" data-name="Tracé 129" class="cls-5" d="M209.558,436.476H207.4l.273-3.876h1.616Z" transform="translate(-197.276 -411.476)"/>
  <path id="Tracé_130" data-name="Tracé 130" class="cls-5" d="M209.653,414.9H207.5v.81a.481.481,0,0,0,.483.483h1.191a.481.481,0,0,0,.483-.483l0-.81Z" transform="translate(-197.371 -394.64)"/>
  <g id="Groupe_29" data-name="Groupe 29" transform="translate(6.034 16.605)">
    <path id="Tracé_131" data-name="Tracé 131" class="cls-6" d="M124.83,340.143l3.939,3.544a14.849,14.849,0,0,0-2.465,1.679.551.551,0,0,1-.854-.2L123.6,341.1l.586-.879A.431.431,0,0,1,124.83,340.143Z" transform="translate(-123.6 -340.033)"/>
    <path id="Tracé_132" data-name="Tracé 132" class="cls-6" d="M233.44,340.143l-3.939,3.544a14.85,14.85,0,0,1,2.465,1.679.551.551,0,0,0,.854-.2l1.85-4.071-.586-.879A.43.43,0,0,0,233.44,340.143Z" transform="translate(-224.331 -340.033)"/>
  </g>
  <path id="Tracé_133" data-name="Tracé 133" class="cls-5" d="M283,33.388l.405,2.856c1.845.371,2.109,3.261,2.148,4.091a.809.809,0,0,0,.137.42l.7,1.093a4.132,4.132,0,0,1,.864-3.017S287.633,31.665,283,33.388Z" transform="translate(-269.185 -31.497)"/>
  <path id="Tracé_134" data-name="Tracé 134" class="cls-4" d="M327.109,186.413l-.488,1.948a.517.517,0,0,1-.5.391h0a.513.513,0,0,1-.513-.454l-.249-1.992a.892.892,0,0,1,.884-1.006h0A.9.9,0,0,1,327.109,186.413Z" transform="translate(-309.467 -176.248)"/>
  <path id="Tracé_135" data-name="Tracé 135" class="cls-3" d="M89.232.995l.639.434A6.445,6.445,0,0,0,87.528,7.2c.864.864.864,3.017.864,3.017l.864-.864s-.332-2.49,1.294-3.446c1.508-.888,2.826-.43,4.174-.43,3.608,0,4.618-1.362,4.442-3.017-.093-.859-1.4-2.641-4.74-2.587A14.753,14.753,0,0,0,89.232.995Z" transform="translate(-83.218 0.124)"/>
  <path id="Tracé_136" data-name="Tracé 136" class="cls-5" d="M88.983,35.476a4.728,4.728,0,0,1,.888-3.676,6.445,6.445,0,0,0-2.343,5.775c.864.864.864,3.017.864,3.017l.864-.864s-.332-2.49,1.294-3.446c1.508-.888,2.826-.43,4.174-.43a10.42,10.42,0,0,0,1.552-.107C93.494,35.837,91.853,33.733,88.983,35.476Z" transform="translate(-83.218 -30.242)"/>
  <path id="Tracé_137" data-name="Tracé 137" class="cls-4" d="M97.166,186.413l.488,1.948a.517.517,0,0,0,.5.391h0a.513.513,0,0,0,.513-.454l.249-1.992a.892.892,0,0,0-.884-1.006h0A.9.9,0,0,0,97.166,186.413Z" transform="translate(-92.397 -176.248)"/>
  <path id="Tracé_138" data-name="Tracé 138" class="cls-1" d="M277.147,494.3H274.13a.43.43,0,0,0-.43.43v.43h3.876v-.43A.433.433,0,0,0,277.147,494.3Z" transform="translate(-260.339 -470.164)"/>
</svg>
