<svg xmlns="http://www.w3.org/2000/svg" xmlns:xlink="http://www.w3.org/1999/xlink" viewBox="0 0 25 20.78">
  <defs>
    <style>
      .cls-1 {
        fill: #a3c9e2;
      }

      .cls-2 {
        clip-path: url(#clip-path);
      }

      .cls-3 {
        fill: #e7f2f9;
      }

      .cls-4 {
        fill: #024d7e;
      }

      .cls-5 {
        fill: #5da7d6;
      }
    </style>
    <clipPath id="clip-path">
      <rect id="Rectangle_78" data-name="Rectangle 78" class="cls-1" width="24.991" height="20.78"/>
    </clipPath>
  </defs>
  <g id="Groupe_33" data-name="Groupe 33" transform="translate(0.012)">
    <path id="Tracé_141" data-name="Tracé 141" class="cls-1" d="M10.09,2.437,8.542.3H.745A.73.73,0,0,0,0,1.048V19.317c-.012.446-.037.321.113.572l9.979-.572Zm0,0" transform="translate(0 -0.14)"/>
    <g id="Groupe_32" data-name="Groupe 32" transform="translate(-0.002)">
      <g id="Groupe_31" data-name="Groupe 31" class="cls-2">
        <path id="Tracé_139" data-name="Tracé 139" class="cls-1" d="M19.84,26.348H.723a.685.685,0,0,1-.641-.855L4.407,13.581a.641.641,0,0,1,.641-.481H24.165c.427,0,.641.427.641.855L20.48,25.867a.748.748,0,0,1-.641.481Zm0,0" transform="translate(-0.029 -6.102)"/>
      </g>
    </g>
    <path id="Tracé_140" data-name="Tracé 140" class="cls-3" d="M5.5,10.972a.641.641,0,0,1,.641-.481H23.76V7.5H4.963L2.4,10.064v9.4Zm0,0" transform="translate(-1.121 -3.494)"/>
    <path id="Tracé_142" data-name="Tracé 142" class="cls-4" d="M4,4.3V7.719L5.709,6.009H23.651V4.3Zm0,0" transform="translate(-1.866 -2.003)"/>
    <rect id="Rectangle_79" data-name="Rectangle 79" class="cls-5" width="0.854" height="0.855" transform="translate(11.959 6.143)"/>
    <rect id="Rectangle_80" data-name="Rectangle 80" class="cls-5" width="0.854" height="0.855" transform="translate(14.949 6.143)"/>
    <rect id="Rectangle_81" data-name="Rectangle 81" class="cls-5" width="0.854" height="0.855" transform="translate(17.94 6.143)"/>
    <rect id="Rectangle_82" data-name="Rectangle 82" class="cls-5" width="0.854" height="0.855" transform="translate(5.978 6.143)"/>
    <rect id="Rectangle_83" data-name="Rectangle 83" class="cls-5" width="0.854" height="0.855" transform="translate(8.969 6.143)"/>
    <path id="Tracé_143" data-name="Tracé 143" class="cls-5" d="M4.963,10.064V7.5L2.4,10.064Zm0,0" transform="translate(-1.121 -3.494)"/>
  </g>
</svg>
