<svg xmlns="http://www.w3.org/2000/svg" viewBox="0 0 30.633 23.625">
  <defs>
    <style>
      .cls-1 {
        fill: #e7f2f9;
      }

      .cls-2 {
        fill: #aad7f3;
      }

      .cls-3 {
        fill: #5da7d6;
      }

      .cls-4 {
        fill: #a3c9e2;
      }

      .cls-5 {
        fill: #024d7e;
      }

      .cls-6 {
        fill: #d4e4ef;
      }

      .cls-7 {
        fill: #e6af78;
      }

      .cls-8 {
        fill: #694b4b;
      }

      .cls-9 {
        fill: #a0d2f0;
      }
    </style>
  </defs>
  <g id="Groupe_34" data-name="Groupe 34" transform="translate(-23.622 -251)">
    <g id="Groupe_34-2" data-name="Groupe 34" transform="translate(23.622 251)">
      <path id="Tracé_122" data-name="Tracé 122" class="cls-1" d="M156.258,302.5v-2.4H150.1v2.4l3.077,2.74Z" transform="translate(-144.283 -288.465)"/>
      <path id="Tracé_123" data-name="Tracé 123" class="cls-2" d="M16.734,361.963l-4.232-1a.707.707,0,0,1-.178-.07l-3.43,2L5.6,360.8a.653.653,0,0,1-.31.167l-4.236,1A1.372,1.372,0,0,0,0,363.3v2.678a.685.685,0,0,0,.686.686H17.107a.685.685,0,0,0,.686-.686V363.3A1.38,1.38,0,0,0,16.734,361.963Z" transform="translate(0 -346.812)"/>
      <path id="Tracé_124" data-name="Tracé 124" class="cls-3" d="M150.1,300.1v2.527c3.875,1.4,6.158-2.1,6.158-2.1V300.1l-6.158,0Z" transform="translate(-144.283 -288.465)"/>
      <path id="Tracé_125" data-name="Tracé 125" class="cls-1" d="M114.8,97.1l.3,6.557a2.06,2.06,0,0,0,.818,1.55l1.415,1.062a2.048,2.048,0,0,0,1.232.411h1.368a2.048,2.048,0,0,0,1.232-.411l1.415-1.062a2.048,2.048,0,0,0,.818-1.55l.3-6.557Z" transform="translate(-110.351 -93.332)"/>
      <path id="Tracé_126" data-name="Tracé 126" class="cls-4" d="M118.218,98.468c1.368,0,3.422-.341,3.907-1.368H114.8l.3,6.557a2.06,2.06,0,0,0,.818,1.55l1.415,1.062a2.048,2.048,0,0,0,1.232.411h.686c-.686,0-2.054-1.368-2.054-3.077V99.5A1.089,1.089,0,0,1,118.218,98.468Z" transform="translate(-110.351 -93.332)"/>
      <g id="Groupe_28" data-name="Groupe 28" transform="translate(0 15.635)">
        <path id="Tracé_127" data-name="Tracé 127" class="cls-1" d="M2.511,405.292.295,403.3a1.367,1.367,0,0,0-.295.849v2.678a.685.685,0,0,0,.686.686h2.4v-.95A1.73,1.73,0,0,0,2.511,405.292Z" transform="translate(0 -403.3)"/>
        <path id="Tracé_128" data-name="Tracé 128" class="cls-1" d="M380.07,405.292l2.217-1.992a1.367,1.367,0,0,1,.294.849v2.678a.685.685,0,0,1-.686.686h-2.4v-.949A1.73,1.73,0,0,1,380.07,405.292Z" transform="translate(-364.792 -403.3)"/>
      </g>
      <path id="Tracé_129" data-name="Tracé 129" class="cls-5" d="M209.113,435.677H207.4l.217-3.077H208.9Z" transform="translate(-199.362 -415.83)"/>
      <path id="Tracé_130" data-name="Tracé 130" class="cls-5" d="M209.209,414.9H207.5v.643a.382.382,0,0,0,.384.384h.946a.382.382,0,0,0,.384-.384l0-.643Z" transform="translate(-199.458 -398.815)"/>
      <g id="Groupe_29" data-name="Groupe 29" transform="translate(4.79 13.183)">
        <path id="Tracé_131" data-name="Tracé 131" class="cls-6" d="M124.577,340.121l3.128,2.814a11.789,11.789,0,0,0-1.957,1.333.438.438,0,0,1-.678-.155L123.6,340.88l.465-.7A.342.342,0,0,1,124.577,340.121Z" transform="translate(-123.6 -340.033)"/>
        <path id="Tracé_132" data-name="Tracé 132" class="cls-6" d="M232.628,340.121l-3.128,2.814a11.789,11.789,0,0,1,1.957,1.333.438.438,0,0,0,.678-.155l1.469-3.232-.465-.7A.342.342,0,0,0,232.628,340.121Z" transform="translate(-225.396 -340.033)"/>
      </g>
      <path id="Tracé_133" data-name="Tracé 133" class="cls-5" d="M283,33.333l.322,2.267c1.465.295,1.674,2.589,1.705,3.248a.642.642,0,0,0,.108.333l.558.868a3.28,3.28,0,0,1,.686-2.4S286.678,31.965,283,33.333Z" transform="translate(-272.032 -31.832)"/>
      <path id="Tracé_134" data-name="Tracé 134" class="cls-4" d="M326.746,186.184l-.388,1.546a.411.411,0,0,1-.4.31h0a.407.407,0,0,1-.407-.36l-.2-1.581a.708.708,0,0,1,.7-.8h0A.716.716,0,0,1,326.746,186.184Z" transform="translate(-312.74 -178.114)"/>
      <path id="Tracé_135" data-name="Tracé 135" class="cls-3" d="M88.873.764l.508.345a5.117,5.117,0,0,0-1.86,4.585,4.21,4.21,0,0,1,.686,2.4l.686-.686s-.264-1.977,1.027-2.736c1.2-.705,2.244-.341,3.314-.341,2.864,0,3.666-1.081,3.527-2.4C96.686,1.249,95.647-.166,93-.123A11.712,11.712,0,0,0,88.873.764Z" transform="translate(-84.098 0.124)"/>
      <path id="Tracé_136" data-name="Tracé 136" class="cls-5" d="M88.675,34.718A3.753,3.753,0,0,1,89.38,31.8a5.117,5.117,0,0,0-1.86,4.585,4.21,4.21,0,0,1,.686,2.4l.686-.686s-.264-1.977,1.027-2.736c1.2-.705,2.244-.341,3.314-.341a8.272,8.272,0,0,0,1.232-.085C92.256,35.005,90.954,33.335,88.675,34.718Z" transform="translate(-84.098 -30.563)"/>
      <path id="Tracé_137" data-name="Tracé 137" class="cls-4" d="M97.161,186.184l.388,1.546a.411.411,0,0,0,.4.31h0a.407.407,0,0,0,.407-.36l.2-1.581a.708.708,0,0,0-.7-.8h0A.712.712,0,0,0,97.161,186.184Z" transform="translate(-93.374 -178.114)"/>
      <path id="Tracé_138" data-name="Tracé 138" class="cls-1" d="M276.436,494.3h-2.4a.341.341,0,0,0-.341.341v.341h3.077v-.341A.344.344,0,0,0,276.436,494.3Z" transform="translate(-263.093 -475.139)"/>
    </g>
    <g id="Groupe_36" data-name="Groupe 36" transform="translate(39.264 251)">
      <path id="Tracé_145" data-name="Tracé 145" class="cls-7" d="M241.266,185.121l.23.913a.24.24,0,0,0,.235.184h0a.243.243,0,0,0,.245-.213l.12-.932a.422.422,0,0,0-.42-.471h0A.419.419,0,0,0,241.266,185.121Z" transform="translate(-229.313 -175.445)"/>
      <path id="Tracé_146" data-name="Tracé 146" class="cls-8" d="M34.229,0C27.245,0,28.02,8.421,28.05,14.526a.655.655,0,0,0,.32.555,11.88,11.88,0,0,0,11.708,0,.644.644,0,0,0,.32-.555C40.432,8.421,41.207,0,34.229,0Z" transform="translate(-26.73)"/>
      <path id="Tracé_147" data-name="Tracé 147" class="cls-5" d="M33.785.3c-6.494.362-5.759,8.545-5.729,14.511a.655.655,0,0,0,.32.555,11.669,11.669,0,0,0,5.854,1.542L35.995,4.659" transform="translate(-26.737 -0.285)"/>
      <path id="Tracé_148" data-name="Tracé 148" class="cls-3" d="M71.649,0C67.68,0,67.4,4.756,67.4,4.756c2.29-.382,3.694.575,6.009-.382L71.644,16.624A11.67,11.67,0,0,0,77.5,15.081a.644.644,0,0,0,.32-.555C77.853,8.421,78.628,0,71.649,0Z" transform="translate(-64.151)"/>
      <path id="Tracé_149" data-name="Tracé 149" class="cls-5" d="M204.471,23.65c.025-5.242.6-12.195-3.669-14.05a3.848,3.848,0,0,0,.14,2.147c.88,1.751,1.765,1.751,2.644,3.065.88,4.811-1.685,9.919-2.539,10.618h0a11.343,11.343,0,0,0,3.1-1.22A.663.663,0,0,0,204.471,23.65Z" transform="translate(-190.799 -9.124)"/>
      <path id="Tracé_150" data-name="Tracé 150" class="cls-1" d="M16.582,252.691l-3.934-1.627a.875.875,0,0,1-.545-.808V249.2H7.694v1.056a.88.88,0,0,1-.545.808l-3.934,1.627A1.307,1.307,0,0,0,2.4,253.9v1.751a.878.878,0,0,0,.88.873H16.512a.878.878,0,0,0,.88-.873V253.9A1.315,1.315,0,0,0,16.582,252.691Z" transform="translate(-2.4 -236.841)"/>
      <path id="Tracé_151" data-name="Tracé 151" class="cls-2" d="M16.582,289.472l-3.8-1.572L9.9,289.13,7.019,287.9l-3.8,1.572a1.307,1.307,0,0,0-.815,1.21v1.751a.878.878,0,0,0,.88.873H16.512a.878.878,0,0,0,.88-.873v-1.751A1.315,1.315,0,0,0,16.582,289.472Z" transform="translate(-2.4 -273.622)"/>
      <path id="Tracé_152" data-name="Tracé 152" class="cls-3" d="M90.669,249.2H86.26v1.056a.88.88,0,0,1-.545.808l-.615.258C89.8,252.508,90.669,249.2,90.669,249.2Z" transform="translate(-80.966 -236.841)"/>
      <g id="Groupe_35" data-name="Groupe 35" transform="translate(0 13.564)">
        <path id="Tracé_153" data-name="Tracé 153" class="cls-1" d="M4.55,327l-1.77-1.4a1.319,1.319,0,0,0-.38.918v1.751a.878.878,0,0,0,.88.873H5.044V328.02A1.3,1.3,0,0,0,4.55,327Z" transform="translate(-2.4 -323.017)"/>
        <path id="Tracé_154" data-name="Tracé 154" class="cls-1" d="M252.044,328.363v-1.751a1.311,1.311,0,0,0-.375-.912l-1.775,1.394a1.3,1.3,0,0,0-.495,1.027v1.116h1.765A.878.878,0,0,0,252.044,328.363Z" transform="translate(-237.052 -323.112)"/>
        <path id="Tracé_156" data-name="Tracé 156" class="cls-6" d="M85.329,275.459l-2.525-1.88a.358.358,0,0,0-.5.084l-.5.744,1.55,2.147c.12.164,1.98.989,1.98-1.1Z" transform="translate(-77.831 -273.511)"/>
        <path id="Tracé_157" data-name="Tracé 157" class="cls-6" d="M152.4,275.459l2.524-1.88a.358.358,0,0,1,.5.084l.5.744-1.55,2.147c-.12.164-1.98,1.033-1.98-1.1Z" transform="translate(-144.902 -273.511)"/>
      </g>
      <path id="Tracé_158" data-name="Tracé 158" class="cls-1" d="M72.334,79.4c-2.2,2.187-6.534.436-6.534,3.938l.275,2.579a1.763,1.763,0,0,0,.9,1.374l2.51,1.384a1.343,1.343,0,0,0,1.285,0l2.509-1.384a1.756,1.756,0,0,0,.9-1.374l.315-3.06a5.729,5.729,0,0,0,.02-.655C74.353,81.086,72.774,80.273,72.334,79.4Z" transform="translate(-62.631 -75.462)"/>
      <path id="Tracé_159" data-name="Tracé 159" class="cls-4" d="M65.8,83.338l.275,2.579a1.764,1.764,0,0,0,.9,1.374l2.51,1.384a1.321,1.321,0,0,0,.9.134h0a3.689,3.689,0,0,1-2.02-2.405c-.23-.62-.55-3.9-.275-4.3.545-.793,3.584-.873,4.479-2.346-.045-.055-.085-.109-.125-.164,0,0,0-.01-.01-.015a1.606,1.606,0,0,1-.1-.174C70.129,81.587,65.8,79.836,65.8,83.338Z" transform="translate(-62.631 -75.462)"/>
      <path id="Tracé_160" data-name="Tracé 160" class="cls-1" d="M181,379.4H179.24a.439.439,0,0,0-.44.436v.436h2.644v-.436A.433.433,0,0,0,181,379.4Z" transform="translate(-169.982 -360.584)"/>
    </g>
    <g id="Groupe_39" data-name="Groupe 39" transform="translate(34.687 261.891)">
      <path id="Tracé_161" data-name="Tracé 161" class="cls-7" d="M238.861,184.937l.148.59a.154.154,0,0,0,.151.119h0a.156.156,0,0,0,.157-.138l.077-.6a.272.272,0,0,0-.269-.3h0A.271.271,0,0,0,238.861,184.937Z" transform="translate(-231.192 -178.679)"/>
      <path id="Tracé_162" data-name="Tracé 162" class="cls-8" d="M29.651,0C25.17,0,25.667,3.827,25.69,6.6a.3.3,0,0,0,.205.253,9.844,9.844,0,0,0,3.756.7,9.844,9.844,0,0,0,3.756-.7.291.291,0,0,0,.205-.253C33.631,3.827,34.129,0,29.651,0Z" transform="translate(-24.84)"/>
      <path id="Tracé_163" data-name="Tracé 163" class="cls-5" d="M29.368.3C25.2.467,25.673,4.213,25.7,6.946A.3.3,0,0,0,25.9,7.2a9.825,9.825,0,0,0,3.756.706L30.789,2.3" transform="translate(-24.845 -0.29)"/>
      <path id="Tracé_164" data-name="Tracé 164" class="cls-3" d="M67.823,0A2.5,2.5,0,0,0,65.1,2.181C66.569,2,67.47,2.444,68.955,2L67.823,7.618a9.805,9.805,0,0,0,3.756-.709.3.3,0,0,0,.205-.257C71.8,3.859,72.3,0,67.823,0Z" transform="translate(-63.012)"/>
      <path id="Tracé_166" data-name="Tracé 166" class="cls-1" d="M9.1,251.458l-2.524-1.052a.566.566,0,0,1-.35-.523V249.2H3.4v.683a.569.569,0,0,1-.35.523L.523,251.458a.85.85,0,0,0-.523.786v1.132a.565.565,0,0,0,.565.565h8.49a.565.565,0,0,0,.565-.565v-1.132A.847.847,0,0,0,9.1,251.458Z" transform="translate(0 -241.207)"/>
      <path id="Tracé_167" data-name="Tracé 167" class="cls-3" d="M86.273,249.2H83.444v.683a.569.569,0,0,1-.35.523l-.395.167C85.718,251.339,86.273,249.2,86.273,249.2Z" transform="translate(-80.047 -241.207)"/>
      <path id="Tracé_168" data-name="Tracé 168" class="cls-1" d="M67.592,79.4c-1.415,1.415-4.192.282-4.192,2.547l.176,1.668a1.141,1.141,0,0,0,.577.888l1.61.895a.855.855,0,0,0,.824,0L68.2,84.5a1.136,1.136,0,0,0,.577-.888l.2-1.979a3.733,3.733,0,0,0,.013-.423C68.888,80.491,67.875,79.965,67.592,79.4Z" transform="translate(-61.366 -76.853)"/>
      <path id="Tracé_169" data-name="Tracé 169" class="cls-4" d="M63.4,81.947l.176,1.668a1.141,1.141,0,0,0,.577.889l1.61.895a.842.842,0,0,0,.577.087h0a2.378,2.378,0,0,1-1.3-1.556,8.3,8.3,0,0,1-.176-2.784c.35-.513,2.3-.565,2.874-1.517-.029-.035-.055-.071-.08-.106,0,0,0-.006-.006-.01a1.041,1.041,0,0,1-.067-.112C66.178,80.815,63.4,79.682,63.4,81.947Z" transform="translate(-61.366 -76.853)"/>
      <g id="Groupe_37" data-name="Groupe 37" transform="translate(0 10.444)">
        <path id="Tracé_170" data-name="Tracé 170" class="cls-9" d="M1.379,326.5l-1.135-.9a.842.842,0,0,0-.244.593v1.132a.565.565,0,0,0,.565.565H1.7v-.725A.842.842,0,0,0,1.379,326.5Z" transform="translate(0 -325.6)"/>
        <path id="Tracé_171" data-name="Tracé 171" class="cls-9" d="M248.8,327.422V326.29a.852.852,0,0,0-.241-.59l-1.139.9a.844.844,0,0,0-.318.664v.722h1.132A.565.565,0,0,0,248.8,327.422Z" transform="translate(-239.174 -325.697)"/>
      </g>
      <path id="Tracé_172" data-name="Tracé 172" class="cls-9" d="M177.915,379.4h-1.132a.283.283,0,0,0-.282.282v.282h1.7v-.282A.283.283,0,0,0,177.915,379.4Z" transform="translate(-170.839 -367.23)"/>
      <g id="Groupe_38" data-name="Groupe 38" transform="translate(0 9.289)">
        <path id="Tracé_173" data-name="Tracé 173" class="cls-2" d="M9.1,290.562l-2.293-.956c-.087.5-.943.885-1.992.885S2.9,290.1,2.823,289.6l-2.3.959a.859.859,0,0,0-.52.789v1.132a.565.565,0,0,0,.565.564h8.49a.565.565,0,0,0,.565-.564v-1.132A.847.847,0,0,0,9.1,290.562Z" transform="translate(0 -289.6)"/>
      </g>
    </g>
  </g>
</svg>
