<?xml version="1.0" encoding="utf-8"?>
<!-- Generator: Adobe Illustrator 22.1.0, SVG Export Plug-In . SVG Version: 6.00 Build 0)  -->
<svg version="1.1" id="Capa_1" xmlns="http://www.w3.org/2000/svg" xmlns:xlink="http://www.w3.org/1999/xlink" x="0px" y="0px"
	 viewBox="0 0 468.3 468.3" style="enable-background:new 0 0 468.3 468.3;" xml:space="preserve">
<style type="text/css">
	.st0{fill:#5DA7D6;}
	.st1{fill:#FFFFFF;}
	.st2{fill:#27A2DB;}
	.st3{fill:#2D93BA;}
	.st4{fill:#AAD7F3;}
	.st5{fill:#024D7E;}
</style>
<rect x="21.2" class="st0" width="298" height="443.9"/>
<g>
	<rect x="54.7" y="34.3" class="st1" width="38.3" height="63.3"/>
	<rect x="119" y="34.3" class="st1" width="38.3" height="63.3"/>
	<rect x="183.3" y="34.3" class="st1" width="38.3" height="63.3"/>
	<rect x="247.6" y="34.3" class="st1" width="38.3" height="63.3"/>
	<rect x="54.7" y="134.3" class="st1" width="38.3" height="63.3"/>
	<rect x="119" y="134.3" class="st1" width="38.3" height="63.3"/>
</g>
<g>
	<rect x="183.3" y="134.3" class="st2" width="38.3" height="63.3"/>
	<rect x="247.6" y="134.3" class="st2" width="38.3" height="63.3"/>
</g>
<g>
	<polygon class="st3" points="221.5,297.5 183.3,297.5 221.5,234.2 	"/>
	<polygon class="st3" points="285.8,297.5 247.6,297.5 285.8,234.2 	"/>
</g>
<g>
	<rect x="54.7" y="334.2" class="st1" width="38.3" height="63.3"/>
	<rect x="119" y="334.2" class="st1" width="38.3" height="63.3"/>
</g>
<g>
	<rect x="183.3" y="334.2" class="st2" width="38.3" height="63.3"/>
	<rect x="247.6" y="334.2" class="st2" width="38.3" height="63.3"/>
</g>
<g>
	<polygon class="st3" points="221.5,197.6 183.3,197.6 221.5,134.3 	"/>
	<polygon class="st3" points="285.8,197.6 247.6,197.6 285.8,134.3 	"/>
</g>
<g>
	<rect x="54.7" y="234.2" class="st1" width="38.3" height="63.3"/>
	<rect x="119" y="234.2" class="st1" width="38.3" height="63.3"/>
</g>
<g>
	<rect x="183.3" y="234.2" class="st2" width="38.3" height="63.3"/>
	<rect x="247.6" y="234.2" class="st2" width="38.3" height="63.3"/>
</g>
<g>
	<polygon class="st3" points="221.5,397.5 183.3,397.5 221.5,334.2 	"/>
	<polygon class="st3" points="285.8,397.5 247.6,397.5 285.8,334.2 	"/>
</g>
<rect x="183.3" y="133.6" class="st4" width="255.6" height="310.3"/>
<rect x="268.5" y="358.8" class="st0" width="85.2" height="85.2"/>
<rect x="257.8" y="344.5" class="st5" width="106.5" height="14.3"/>
<g>
	<rect x="204.6" y="162.6" class="st1" width="35.3" height="61.5"/>
	<rect x="263.8" y="162.6" class="st1" width="35.3" height="61.5"/>
	<rect x="323.1" y="162.6" class="st1" width="35.3" height="61.5"/>
	<rect x="382.3" y="162.6" class="st1" width="35.3" height="61.5"/>
</g>
<g>
	<rect x="204.6" y="254" class="st1" width="35.3" height="61.5"/>
	<rect x="263.8" y="254" class="st1" width="35.3" height="61.5"/>
	<rect x="323.1" y="254" class="st1" width="35.3" height="61.5"/>
	<rect x="382.3" y="254" class="st1" width="35.3" height="61.5"/>
	<rect x="382.3" y="344.5" class="st1" width="35.3" height="61.5"/>
	<rect x="204.6" y="344.5" class="st1" width="35.3" height="61.5"/>
</g>
<path class="st5" d="M456,468.3H12.3c-3.4,0-6.2-2.8-6.2-6.2v-11.8c0-3.4,2.8-6.2,6.2-6.2H456c3.4,0,6.2,2.8,6.2,6.2V462
	C462.2,465.5,459.4,468.3,456,468.3z"/>
</svg>
