<svg xmlns="http://www.w3.org/2000/svg" viewBox="0 0 22.091 22">
  <defs>
    <style>
      .cls-1 {
        fill: #e7f2f9;
      }

      .cls-2 {
        fill: #a3c9e2;
      }

      .cls-3 {
        fill: none;
      }

      .cls-4 {
        fill: #024d7e;
      }
    </style>
  </defs>
  <g id="Groupe_5" data-name="Groupe 5" transform="translate(-8.219 -13.779)">
    <path id="Tracé_6" data-name="Tracé 6" class="cls-1" d="M143.952,240.693l5.854-5.833a4.916,4.916,0,0,0,5.291-1.1,4.861,4.861,0,0,0,1.345-4.411.717.717,0,0,0-1.209-.371l-2.545,2.536a.72.72,0,0,1-1.018,0l-1.282-1.277a.714.714,0,0,1,0-1.014l2.545-2.536a.712.712,0,0,0-.373-1.2,4.952,4.952,0,0,0-4.427,1.34,4.869,4.869,0,0,0-1.1,5.271l-5.854,5.833a4.917,4.917,0,0,0-5.291,1.1,4.861,4.861,0,0,0-1.345,4.411.717.717,0,0,0,1.209.371l2.545-2.536a.721.721,0,0,1,1.018,0l1.282,1.277a.714.714,0,0,1,0,1.014l-2.545,2.536a.712.712,0,0,0,.373,1.2,4.951,4.951,0,0,0,4.427-1.34A4.869,4.869,0,0,0,143.952,240.693Z" transform="translate(-126.228 -211.616)"/>
    <g id="Groupe_2" data-name="Groupe 2" transform="translate(15.124 20.581)">
      <path id="Tracé_174" data-name="Tracé 174" class="cls-2" d="M0,0,3.339.006l.007,3.911L.007,3.911Z" transform="translate(1.584 3.987) rotate(-45)"/>
      <line id="Ligne_1" data-name="Ligne 1" class="cls-3" x2="6.491" y2="6.467"/>
    </g>
    <path id="Tracé_7" data-name="Tracé 7" class="cls-1" d="M209.686,300.475a.749.749,0,0,1-.509-.208l-6.491-6.467a.719.719,0,1,1,1.018-1.014l6.491,6.467a.715.715,0,0,1,0,1.015A.749.749,0,0,1,209.686,300.475Z" transform="translate(-188.071 -272.711)"/>
    <path id="Tracé_8" data-name="Tracé 8" class="cls-2" d="M203.7,292.786a.719.719,0,0,0-1.018,1.014l1.291,1.286L205,294.072Z" transform="translate(-188.072 -272.711)"/>
    <path id="Tracé_9" data-name="Tracé 9" class="cls-1" d="M157.767,241.466l-4.191-3.632a.72.72,0,0,0-.982.036l-1.891,1.884a.722.722,0,0,0-.036.978l3.645,4.175a.74.74,0,0,0,.518.245h.027a.716.716,0,0,0,.509-.208l2.436-2.427a.715.715,0,0,0,.209-.525A.739.739,0,0,0,157.767,241.466Z" transform="translate(-140.816 -222.768)"/>
    <path id="Tracé_10" data-name="Tracé 10" class="cls-2" d="M273.05,359.139l-4.8-4.782a.7.7,0,0,0-.282-.172l-1.618-.534a.735.735,0,0,0-.736.172l-1.891,1.884a.724.724,0,0,0-.173.734l.536,1.612a.7.7,0,0,0,.173.281l4.8,4.782a2.156,2.156,0,0,0,3.036,0l.945-.942a2.112,2.112,0,0,0,.627-1.512A2.074,2.074,0,0,0,273.05,359.139Z" transform="translate(-243.563 -328.224)"/>
    <path id="Tracé_11" data-name="Tracé 11" class="cls-4" d="M263.769,376.2l-.045.045a.723.723,0,0,0-.173.733l.536,1.612a.7.7,0,0,0,.173.281l4.8,4.782a2.151,2.151,0,0,0,2.545.362Z" transform="translate(-243.563 -348.763)"/>
  </g>
</svg>
