<svg id="Groupe_26" data-name="Groupe 26" xmlns="http://www.w3.org/2000/svg" viewBox="0 0 23.091 25">
  <defs>
    <style>
      .cls-1 {
        fill: #a3c9e2;
      }

      .cls-2 {
        fill: #5da7d6;
      }

      .cls-3 {
        fill: #e7f2f9;
      }
    </style>
  </defs>
  <path id="Tracé_96" data-name="Tracé 96" class="cls-1" d="M79.686,320.923a.733.733,0,0,0-1.025.156l-2.539,3.447a.733.733,0,0,0,.156,1.025.723.723,0,0,0,.435.142.735.735,0,0,0,.591-.3l2.539-3.447A.733.733,0,0,0,79.686,320.923Z" transform="translate(-72.266 -305.116)"/>
  <path id="Tracé_97" data-name="Tracé 97" class="cls-1" d="M318.843,324.526l-2.539-3.447a.733.733,0,1,0-1.182.869l2.539,3.447a.729.729,0,0,0,.591.3.756.756,0,0,0,.435-.142A.733.733,0,0,0,318.843,324.526Z" transform="translate(-299.598 -305.116)"/>
  <path id="Tracé_98" data-name="Tracé 98" class="cls-2" d="M22.513,357.864h0a1.969,1.969,0,0,0-2.778-.171,12.524,12.524,0,0,1-16.55,0,1.972,1.972,0,0,0-2.778.171,1.947,1.947,0,0,0-.488,1.426,1.973,1.973,0,0,0,.659,1.352,16.445,16.445,0,0,0,21.765,0,1.972,1.972,0,0,0,.171-2.778Z" transform="translate(0.086 -339.758)"/>
  <path id="Tracé_100" data-name="Tracé 100" class="cls-1" d="M262.632,182.7a.731.731,0,0,0-.732.732v3.72a.732.732,0,1,0,1.465,0v-3.72A.731.731,0,0,0,262.632,182.7Z" transform="translate(-249.109 -173.777)"/>
  <path id="Tracé_101" data-name="Tracé 101" class="cls-2" d="M144.5,184.287a2.671,2.671,0,0,0-2.441-1.587h-8.925a.732.732,0,0,0,0,1.465h8.92a1.211,1.211,0,0,1,1.1.718.734.734,0,0,0,1.343-.6Z" transform="translate(-125.932 -173.777)"/>
  <path id="Tracé_103" data-name="Tracé 103" class="cls-3" d="M47,12.572H39.137L35.8.469a.75.75,0,0,0-.347-.444A.718.718,0,0,0,34.9-.043a3.725,3.725,0,0,0-2.592,4.57L35,14.286a3.737,3.737,0,0,0,3.588,2.734H47a2.224,2.224,0,0,0,0-4.448Z" transform="translate(-30.599 0.071)"/>
  <path id="Tracé_104" data-name="Tracé 104" class="cls-3" d="M42.149,12.572H39.142L35.8.469a.75.75,0,0,0-.347-.444A.718.718,0,0,0,34.9-.043a3.725,3.725,0,0,0-2.592,4.57L35,14.286a3.737,3.737,0,0,0,3.588,2.734h3.564Z" transform="translate(-30.599 0.071)"/>
</svg>
